<?xml version="1.0" encoding="UTF-8"?>
<svg xmlns="http://www.w3.org/2000/svg" xmlns:xlink="http://www.w3.org/1999/xlink" viewBox="0 0 100 100" width="100px" height="100px">
<g id="surface448713">
<path style=" stroke:none;fill-rule:nonzero;fill:rgb(100%,100%,100%);fill-opacity:1;" d="M 60.085938 9.375 C 60.085938 9.375 75.738281 29.125 67.707031 51.367188 C 67.707031 51.367188 39.53125 31.398438 25.324219 16.992188 C 25.324219 16.992188 43 42.605469 49.351562 47.855469 C 49.351562 47.855469 38.757812 42.21875 14.195312 21.292969 C 14.195312 21.292969 42.539062 58.136719 55.792969 65.824219 C 55.792969 65.824219 35.695312 79.519531 6.25 60.164062 C 6.25 60.15625 21.5625 87.5 54.230469 87.5 C 68.90625 87.5 73.324219 79.882812 80.601562 79.882812 C 88.167969 79.882812 92.710938 87.5 92.710938 87.5 C 97.132812 76.707031 86.070312 64.449219 86.070312 64.449219 C 86.070312 64.449219 96.488281 31.644531 60.085938 9.375 Z M 60.085938 9.375 "/>
</g>
</svg>
